<svg width="97" height="16" viewBox="0 0 97 16" fill="none" xmlns="http://www.w3.org/2000/svg">
<path d="M0.614375 15V0.239999H6.25438C7.64104 0.239999 8.66771 0.566666 9.33437 1.22C10.001 1.87333 10.3344 2.82667 10.3344 4.08C10.3344 4.66667 10.241 5.18667 10.0544 5.64C9.88104 6.08 9.64104 6.44667 9.33437 6.74C9.02771 7.02 8.66771 7.21333 8.25438 7.32C8.56104 7.4 8.86104 7.52667 9.15438 7.7C9.46104 7.86 9.74104 8.08667 9.99438 8.38C10.2477 8.67333 10.4477 9.03333 10.5944 9.46C10.741 9.87333 10.8144 10.36 10.8144 10.92C10.8144 11.9333 10.641 12.74 10.2944 13.34C9.96104 13.9267 9.46771 14.3533 8.81438 14.62C8.17438 14.8733 7.40104 15 6.49438 15H0.614375ZM3.07438 12.78H6.41438C6.82771 12.78 7.18771 12.7067 7.49438 12.56C7.80104 12.4133 8.03438 12.18 8.19438 11.86C8.36771 11.5267 8.45438 11.0733 8.45438 10.5C8.45438 10.0467 8.36771 9.66667 8.19438 9.36C8.02104 9.05333 7.78104 8.82 7.47438 8.66C7.16771 8.48667 6.81438 8.4 6.41438 8.4H3.07438V12.78ZM3.07438 6.48H6.29438C6.78771 6.48 7.18771 6.3 7.49438 5.94C7.80104 5.56667 7.96104 5.08 7.97438 4.48C7.98771 3.72 7.82104 3.19333 7.47438 2.9C7.14104 2.60667 6.72771 2.46 6.23438 2.46H3.07438V6.48ZM16.4172 15.1C16.0972 15.1 15.7372 15.0667 15.3372 15C14.9505 14.9467 14.5772 14.82 14.2172 14.62C13.8572 14.4067 13.5639 14.0933 13.3372 13.68C13.1105 13.2667 12.9972 12.7 12.9972 11.98V3.46C12.9972 2.83333 13.0905 2.31333 13.2772 1.9C13.4639 1.47333 13.7105 1.14 14.0172 0.899999C14.3372 0.659999 14.6839 0.493333 15.0572 0.4C15.4439 0.293333 15.8239 0.239999 16.1972 0.239999C17.1305 0.239999 17.9705 0.253332 18.7172 0.279999C19.4639 0.306666 20.1439 0.333333 20.7572 0.359999C21.3839 0.386666 21.9639 0.419999 22.4972 0.459999V2.52H16.9172C16.4639 2.52 16.1039 2.63333 15.8372 2.86C15.5839 3.08667 15.4572 3.44 15.4572 3.92V6.54L21.5972 6.68V8.62L15.4572 8.76V11.3C15.4572 11.7 15.5239 12.0067 15.6572 12.22C15.8039 12.4333 15.9839 12.58 16.1972 12.66C16.4239 12.74 16.6572 12.78 16.8972 12.78H22.4972V14.84C21.9105 14.8933 21.2705 14.94 20.5772 14.98C19.8839 15.0067 19.1772 15.0267 18.4572 15.04C17.7505 15.0667 17.0705 15.0867 16.4172 15.1ZM28.0522 15V2.46H23.8122V0.239999H34.7522V2.46H30.5322V15H28.0522ZM36.4542 15V0.239999H42.5542C43.0209 0.239999 43.4942 0.299999 43.9742 0.419999C44.4542 0.526666 44.8942 0.746666 45.2942 1.08C45.7076 1.41333 46.0342 1.90667 46.2742 2.56C46.5276 3.21333 46.6542 4.08667 46.6542 5.18C46.6542 6.27333 46.5276 7.15333 46.2742 7.82C46.0209 8.48667 45.6876 9 45.2742 9.36C44.8742 9.70667 44.4342 9.94667 43.9542 10.08C43.4876 10.2 43.0342 10.26 42.5942 10.26C42.3676 10.26 42.0809 10.2533 41.7342 10.24C41.4009 10.2133 41.0476 10.1867 40.6742 10.16C40.3142 10.12 39.9742 10.0867 39.6542 10.06C39.3476 10.02 39.1009 9.98667 38.9142 9.96V15H36.4542ZM38.9142 8.02H42.2342C42.6209 8.02 42.9609 7.93333 43.2542 7.76C43.5476 7.57333 43.7742 7.28 43.9342 6.88C44.0942 6.46667 44.1742 5.90667 44.1742 5.2C44.1742 4.50667 44.0876 3.96 43.9142 3.56C43.7542 3.16 43.5342 2.88 43.2542 2.72C42.9876 2.54667 42.6742 2.46 42.3142 2.46H38.9142V8.02ZM48.7589 15V0.239999H54.7589C55.3056 0.239999 55.8189 0.306666 56.2989 0.439999C56.7922 0.559999 57.2256 0.786666 57.5989 1.12C57.9856 1.45333 58.2856 1.92 58.4989 2.52C58.7256 3.10667 58.8389 3.87333 58.8389 4.82C58.8389 5.55333 58.7656 6.16667 58.6189 6.66C58.4722 7.14 58.2789 7.53333 58.0389 7.84C57.7989 8.14667 57.5256 8.38667 57.2189 8.56C56.9256 8.72 56.6322 8.85333 56.3389 8.96L59.1789 15H56.6789L54.1189 9.32C53.9322 9.32 53.7122 9.32 53.4589 9.32C53.2189 9.32 52.9656 9.32 52.6989 9.32C52.4322 9.30667 52.1722 9.3 51.9189 9.3C51.6656 9.28667 51.4322 9.28 51.2189 9.28V15H48.7589ZM51.2189 7.34H54.3389C54.6322 7.34 54.8989 7.30667 55.1389 7.24C55.3789 7.16 55.5922 7.02667 55.7789 6.84C55.9656 6.65333 56.1056 6.4 56.1989 6.08C56.3056 5.76 56.3589 5.34667 56.3589 4.84C56.3589 4.34667 56.3056 3.94667 56.1989 3.64C56.1056 3.32 55.9656 3.08 55.7789 2.92C55.5922 2.74667 55.3722 2.62667 55.1189 2.56C54.8789 2.49333 54.6189 2.46 54.3389 2.46H51.2189V7.34ZM66.7213 15.12C65.7346 15.12 64.8679 15.0267 64.1213 14.84C63.3879 14.64 62.7679 14.2867 62.2613 13.78C61.7679 13.26 61.3946 12.5067 61.1413 11.52C60.9013 10.5333 60.7813 9.24667 60.7813 7.66C60.7813 6.06 60.9079 4.76667 61.1613 3.78C61.4146 2.78 61.7879 2.02 62.2812 1.5C62.7879 0.966666 63.4079 0.599999 64.1413 0.4C64.8879 0.199999 65.7479 0.0999987 66.7213 0.0999987C67.7213 0.0999987 68.5946 0.199999 69.3413 0.4C70.0879 0.599999 70.7079 0.966666 71.2013 1.5C71.6946 2.02 72.0613 2.78 72.3013 3.78C72.5546 4.76667 72.6813 6.06 72.6813 7.66C72.6813 9.24667 72.5546 10.5333 72.3013 11.52C72.0613 12.5067 71.6879 13.26 71.1813 13.78C70.6879 14.2867 70.0679 14.64 69.3213 14.84C68.5879 15.0267 67.7213 15.12 66.7213 15.12ZM66.7213 12.9C67.3746 12.9 67.9213 12.8333 68.3613 12.7C68.8146 12.5533 69.1746 12.3 69.4413 11.94C69.7079 11.5667 69.9013 11.04 70.0213 10.36C70.1413 9.66667 70.2013 8.76667 70.2013 7.66C70.2013 6.48667 70.1346 5.55333 70.0013 4.86C69.8813 4.15333 69.6879 3.62 69.4213 3.26C69.1546 2.88667 68.8013 2.64 68.3613 2.52C67.9213 2.38667 67.3746 2.32 66.7213 2.32C66.1079 2.32 65.5813 2.38667 65.1413 2.52C64.7013 2.64 64.3413 2.88667 64.0613 3.26C63.7946 3.62 63.5946 4.15333 63.4613 4.86C63.3279 5.55333 63.2613 6.48667 63.2613 7.66C63.2613 8.76667 63.3146 9.66667 63.4213 10.36C63.5413 11.04 63.7346 11.5667 64.0013 11.94C64.2679 12.3 64.6213 12.5533 65.0612 12.7C65.5146 12.8333 66.0679 12.9 66.7213 12.9Z" fill="white"/>
<path d="M74.6675 15V13L79.7875 7.98C80.2408 7.54 80.6075 7.13333 80.8875 6.76C81.1675 6.38667 81.3742 6.02 81.5075 5.66C81.6408 5.28667 81.7075 4.88 81.7075 4.44C81.7075 4.04 81.6275 3.69333 81.4675 3.4C81.3208 3.09333 81.0608 2.86 80.6875 2.7C80.3275 2.54 79.8208 2.46 79.1675 2.46H75.0675V0.519999C75.6942 0.413332 76.3875 0.319999 77.1475 0.239999C77.9208 0.16 78.7608 0.12 79.6675 0.12C80.8142 0.12 81.7142 0.28 82.3675 0.599999C83.0208 0.906666 83.4875 1.36 83.7675 1.96C84.0475 2.54667 84.1875 3.24667 84.1875 4.06C84.1875 4.72667 84.0942 5.34 83.9075 5.9C83.7342 6.46 83.4608 7 83.0875 7.52C82.7275 8.02667 82.2675 8.55333 81.7075 9.1L77.9675 12.76H84.6675V15H74.6675ZM91.9048 15.1C91.0648 15.1 90.1982 15.0733 89.3048 15.02C88.4115 14.9667 87.5848 14.9 86.8248 14.82V12.88H92.0048C92.5248 12.88 92.9515 12.7933 93.2848 12.62C93.6182 12.4467 93.8648 12.2133 94.0248 11.92C94.1848 11.6133 94.2648 11.2867 94.2648 10.94V9.7C94.2648 9.15333 94.1182 8.72667 93.8248 8.42C93.5315 8.1 93.0582 7.94 92.4048 7.94H91.1048C90.6115 7.94 90.2248 8.04667 89.9448 8.26C89.6782 8.47333 89.5048 8.8 89.4248 9.24H87.0848L87.5048 0.239999H96.2048V2.46H89.6448L89.4448 6.64C89.6315 6.4 89.9115 6.20667 90.2848 6.06C90.6582 5.91333 91.0982 5.84 91.6048 5.84H93.2648C94.0382 5.84 94.6782 5.99333 95.1848 6.3C95.7048 6.59333 96.0915 7 96.3448 7.52C96.6115 8.02667 96.7448 8.60667 96.7448 9.26V11.44C96.7448 12.28 96.5515 12.9733 96.1648 13.52C95.7915 14.0533 95.2448 14.4533 94.5248 14.72C93.8048 14.9733 92.9315 15.1 91.9048 15.1Z" fill="#FF6F00"/>
</svg>
